<?xml version="1.0" encoding="utf-8"?>
<!-- Generator: Adobe Illustrator 22.0.1, SVG Export Plug-In . SVG Version: 6.00 Build 0)  -->
<svg version="1.1" baseProfile="tiny" id="Layer_2" xmlns="http://www.w3.org/2000/svg" xmlns:xlink="http://www.w3.org/1999/xlink"
	 x="0px" y="0px" viewBox="0 0 16 16" xml:space="preserve">
<path fill="#010101" d="M14.9,14.1L11.7,11c0.8-1,1.3-2.2,1.3-3.5c0-3-2.5-5.5-5.5-5.5S2,4.5,2,7.5c0,3,2.5,5.5,5.5,5.5
	c1.3,0,2.6-0.5,3.5-1.3l3.1,3.1c0.2,0.2,0.5,0.2,0.7,0C15,14.7,15,14.3,14.9,14.1z M7.5,12C5,12,3,10,3,7.5S5,3,7.5,3S12,5,12,7.5
	S10,12,7.5,12z"/>
</svg>
